<?xml version="1.0" encoding="UTF-8" standalone="no"?>
<!-- Generator: Adobe Illustrator 19.0.0, SVG Export Plug-In . SVG Version: 6.00 Build 0)  -->

<svg
   xmlns:dc="http://purl.org/dc/elements/1.1/"
   xmlns:cc="http://creativecommons.org/ns#"
   xmlns:rdf="http://www.w3.org/1999/02/22-rdf-syntax-ns#"
   xmlns:svg="http://www.w3.org/2000/svg"
   xmlns="http://www.w3.org/2000/svg"
   xmlns:sodipodi="http://sodipodi.sourceforge.net/DTD/sodipodi-0.dtd"
   xmlns:inkscape="http://www.inkscape.org/namespaces/inkscape"
   version="1.1"
   id="Capa_1"
   x="0px"
   y="0px"
   viewBox="0 0 512 512"
   style="enable-background:new 0 0 512 512;"
   xml:space="preserve"
   sodipodi:docname="info.svg"
   inkscape:version="0.92.4 (5da689c313, 2019-01-14)"><metadata
   id="metadata55"><rdf:RDF><cc:Work
       rdf:about=""><dc:format>image/svg+xml</dc:format><dc:type
         rdf:resource="http://purl.org/dc/dcmitype/StillImage" /></cc:Work></rdf:RDF></metadata><defs
   id="defs53" /><sodipodi:namedview
   pagecolor="#ffffff"
   bordercolor="#666666"
   borderopacity="1"
   objecttolerance="10"
   gridtolerance="10"
   guidetolerance="10"
   inkscape:pageopacity="0"
   inkscape:pageshadow="2"
   inkscape:window-width="2736"
   inkscape:window-height="1699"
   id="namedview51"
   showgrid="false"
   inkscape:zoom="1.84375"
   inkscape:cx="267.61243"
   inkscape:cy="219.82428"
   inkscape:window-x="-13"
   inkscape:window-y="-13"
   inkscape:window-maximized="1"
   inkscape:current-layer="Capa_1" />
<g
   id="g6">
	<g
   id="g4">
		<path
   d="M256,0C114.497,0,0,114.507,0,256c0,141.503,114.507,256,256,256c141.503,0,256-114.507,256-256    C512,114.497,397.492,0,256,0z M256,472c-119.393,0-216-96.615-216-216c0-119.393,96.615-216,216-216    c119.393,0,216,96.615,216,216C472,375.393,375.384,472,256,472z"
   id="path2" />
	</g>
</g>
<g
   id="g12">
	<g
   id="g10">
		<path
   d="M256,214.33c-11.046,0-20,8.954-20,20v128.793c0,11.046,8.954,20,20,20s20-8.955,20-20.001V234.33    C276,223.284,267.046,214.33,256,214.33z"
   id="path8" />
	</g>
</g>
<g
   id="g18">
	<g
   id="g16">
		<circle
   cx="256"
   cy="162.84"
   r="27"
   id="circle14" />
	</g>
</g>
<g
   id="g20">
</g>
<g
   id="g22">
</g>
<g
   id="g24">
</g>
<g
   id="g26">
</g>
<g
   id="g28">
</g>
<g
   id="g30">
</g>
<g
   id="g32">
</g>
<g
   id="g34">
</g>
<g
   id="g36">
</g>
<g
   id="g38">
</g>
<g
   id="g40">
</g>
<g
   id="g42">
</g>
<g
   id="g44">
</g>
<g
   id="g46">
</g>
<g
   id="g48">
</g>
<path
   style="fill:#ffffff;fill-opacity:0.63003666;stroke-width:2.16949153"
   d="M 218.97575,467.56725 C 132.80309,451.93153 63.846207,385.46614 45.619465,300.47458 c -4.974668,-23.19697 -4.974668,-65.7522 0,-88.94916 C 61.278546,138.50689 116.04485,76.852929 186.55435,52.865937 c 76.70731,-26.095456 160.97481,-7.145446 218.3402,49.100163 28.31095,27.75833 46.22097,57.11766 57.85027,94.83212 5.49352,17.81579 5.87908,21.69836 5.87908,59.20178 0,37.50341 -0.38556,41.386 -5.87908,59.20178 -11.6293,37.71446 -29.53932,67.0738 -57.85027,94.83212 -48.53999,47.59248 -119.56814,69.57245 -185.9188,57.53335 z m 51.50977,-89.90885 6.3416,-6.34157 v -70.78311 c 0,-79.02179 -0.35565,-81.21745 -13.87791,-85.68021 -8.87249,-2.92818 -21.18262,1.14814 -24.99831,8.27783 -1.54391,2.88481 -2.34412,28.92547 -2.34412,76.28275 v 71.90274 l 6.34159,6.34157 c 4.695,4.69502 8.39983,6.3416 14.26858,6.3416 5.86876,0 9.57357,-1.64658 14.26857,-6.3416 z m 0.023,-191.68962 c 10.07633,-6.79044 13.18621,-13.564 12.11266,-26.3823 -2.88445,-34.4418 -53.52287,-31.48484 -53.52287,3.12538 0,22.64954 23.07831,35.61082 41.41027,23.25692 z"
   id="path862"
   inkscape:connector-curvature="0" /><path
   style="fill:#ffffff;fill-opacity:0.63003666;stroke-width:0.38351554"
   d="m 241.52292,511.46104 c -35.31453,-2.23248 -67.93214,-10.84141 -98.83458,-26.086 C 79.501957,454.20436 31.527344,397.66243 11.199037,330.40435 -6.676706,271.26083 -2.6690523,207.70013 22.490907,151.31722 30.890401,132.49414 43.161765,112.43733 56.234315,96.165636 67.433482,82.225786 81.638219,67.973359 95.403501,56.864946 161.26255,3.7175086 249.157,-13.363818 330.40925,11.194141 c 66.74708,20.173863 122.98983,67.597551 154.21628,130.034569 14.60477,29.20217 22.81695,57.93848 26.19441,91.66022 0.84753,8.4622 0.97241,35.56965 0.20231,43.91253 -3.2251,34.93799 -11.78206,65.24109 -26.74925,94.72834 -12.11499,23.86801 -26.66193,44.1225 -45.41791,63.23795 -14.99634,15.28371 -29.98673,27.39804 -47.18583,38.1328 -34.41949,21.48274 -70.72541,33.71308 -112.49244,37.89517 -5.53538,0.55422 -32.01081,1.02203 -37.6539,0.66532 z m 26.46258,-39.64588 c 47.57059,-2.77305 91.19096,-20.08555 127.51891,-50.61105 6.43942,-5.41091 20.4344,-19.38011 25.5599,-25.51283 23.75967,-28.42878 39.58977,-61.02614 46.68968,-96.14352 3.14087,-15.53536 4.22453,-26.7479 4.2184,-43.6479 -0.007,-20.43112 -1.90914,-35.62663 -6.83954,-54.65096 C 445.63626,126.01981 386.20167,66.496168 311.01982,46.905009 300.34672,44.123774 290.05689,42.250876 278.14866,40.921987 270.57872,40.077225 249.43761,39.74189 241.26626,40.336964 194.61409,43.734406 152.77057,60.620887 116.6674,90.620404 110.40618,95.8231 95.672802,110.57864 90.465631,116.86159 65.520887,146.95982 49.420494,181.55811 43.075425,218.69885 c -2.560086,14.98542 -3.259115,24.6881 -2.979395,41.35478 0.263192,15.68188 1.318565,25.73453 4.153926,39.567 12.426418,60.62297 50.35724,113.01413 104.270444,144.02136 35.73811,20.55417 78.23661,30.57647 119.4651,28.17317 z"
   id="path864"
   inkscape:connector-curvature="0" /><path
   style="fill:#ffffff;fill-opacity:0.63003666;stroke-width:0.38351554"
   d="m 239.41327,511.22533 c 1.8e-4,-0.1582 -0.78376,-0.28763 -1.74207,-0.28763 -4.90601,0 -20.75445,-2.14466 -31.43171,-4.25346 C 116.76726,489.0133 43.149332,424.48474 13.889887,338.08346 6.6293658,316.64359 2.3239476,294.60357 0.83241392,271.24048 0.26547916,262.36013 0.59307622,240.7499 1.4196127,232.50541 5.9062557,187.75228 20.216464,148.04062 44.883796,111.88977 53.972934,98.569324 61.576329,89.392207 73.908268,76.85793 87.674041,62.866297 99.574313,53.008521 114.96279,42.849774 150.65355,19.288423 188.85869,5.8492364 232.89382,1.3659026 238.1844,0.82725428 243.0562,0.68190779 255.90476,0.67938748 272.48295,0.67613527 275.82389,0.85679326 288.31182,2.4317613 345.64185,9.6621836 398.53296,36.054086 439.05,77.647937 c 37.61413,38.613783 61.69142,87.164983 69.75917,140.667403 2.13262,14.14257 2.25013,16.07588 2.33684,38.44743 0.0448,11.54861 -0.0441,20.99748 -0.19763,20.99748 -0.15344,0 -0.39475,1.4238 -0.53615,3.164 -0.42126,5.18344 -2.41722,18.40268 -3.89426,25.79142 -8.75255,43.78436 -29.26354,85.05669 -58.79841,118.31454 -7.45888,8.39911 -20.95234,21.44174 -29.58773,28.59922 -20.8354,17.26951 -46.93803,32.31371 -72.78123,41.94728 -19.5292,7.27989 -42.15851,12.50403 -64.13382,14.80573 -6.36524,0.66671 -41.80411,1.38127 -41.80351,0.84289 z m 27.99695,-39.31778 c 0,-0.1623 1.29437,-0.22973 2.87637,-0.14984 1.73375,0.0876 2.87637,-0.005 2.87637,-0.2331 0,-0.22094 0.71053,-0.29822 1.708,-0.18578 0.9394,0.10585 2.01804,0.0616 2.39697,-0.0984 0.37893,-0.16 1.31859,-0.25588 2.08813,-0.21312 0.76955,0.0428 1.4989,-0.0836 1.62079,-0.28081 0.12189,-0.1972 0.65432,-0.27586 1.18317,-0.17476 0.52885,0.10109 1.26644,0.0641 1.63909,-0.0823 0.37265,-0.14635 1.67635,-0.33228 2.8971,-0.41324 1.22076,-0.0809 2.42883,-0.27747 2.68461,-0.4367 0.25578,-0.15928 0.83689,-0.24158 1.29134,-0.1829 0.45446,0.0587 0.93458,-0.0685 1.06695,-0.28273 0.13237,-0.21416 0.49402,-0.2922 0.80366,-0.17335 0.30965,0.11881 0.86501,0.0856 1.23415,-0.0738 0.36913,-0.15939 1.05946,-0.25181 1.53406,-0.20533 0.4746,0.0464 0.86291,-0.11065 0.86291,-0.34916 0,-0.23847 0.16522,-0.33147 0.36717,-0.20663 0.42252,0.26113 5.38455,-0.5854 5.38755,-0.91914 0.001,-0.12172 0.73431,-0.2637 1.62937,-0.31552 0.89506,-0.0518 1.67907,-0.2492 1.74222,-0.43866 0.0632,-0.1895 0.45173,-0.25642 0.86348,-0.14873 0.41176,0.10766 0.74942,0.0462 0.75036,-0.13661 7.7e-4,-0.18278 0.64497,-0.36602 1.43116,-0.40717 0.78619,-0.0411 1.49049,-0.25792 1.5651,-0.48178 0.0746,-0.22382 0.28465,-0.3149 0.46674,-0.20234 0.48018,0.29677 3.82208,-0.60825 3.82208,-1.03503 0,-0.19836 0.16613,-0.25795 0.36919,-0.13247 0.46612,0.2881 6.15057,-1.34226 6.15057,-1.76405 0,-0.17178 0.22901,-0.22448 0.50892,-0.11705 0.57237,0.21964 8.74217,-2.58935 15.98225,-5.49509 20.13872,-8.08251 40.48078,-20.29603 57.71909,-34.65492 5.21823,-4.34658 23.40312,-22.60537 27.45649,-27.5681 8.24106,-10.08983 20.68407,-28.20123 20.06412,-29.20431 -0.11092,-0.17951 -0.0315,-0.32639 0.1763,-0.32639 0.44303,0 2.86321,-4.10503 2.86321,-4.85646 0,-0.28202 0.15011,-0.51275 0.33354,-0.51275 0.46563,0 7.38482,-14.1085 9.87453,-20.13457 2.99817,-7.25681 6.60598,-17.48868 6.37698,-18.08542 -0.10869,-0.2833 -0.0578,-0.51508 0.11314,-0.51508 0.4071,0 1.29736,-2.98258 1.02284,-3.42678 -0.11655,-0.18857 -0.0154,-0.40841 0.22504,-0.48852 0.24031,-0.0801 0.45711,-0.69849 0.48177,-1.37418 0.0245,-0.6757 0.15379,-1.22893 0.28695,-1.22941 0.35982,-10e-4 1.15753,-3.43298 0.89628,-3.85571 -0.12369,-0.20011 -0.0219,-0.36384 0.226,-0.36384 0.26206,0 0.36687,-0.32121 0.25032,-0.76703 -0.11033,-0.42187 -0.0727,-0.76703 0.0836,-0.76703 0.39698,0 2.04912,-7.57522 1.7557,-8.04999 -0.13167,-0.21304 -0.0364,-0.38735 0.21147,-0.38735 0.27409,0 0.37899,-0.37586 0.26754,-0.95879 -0.10079,-0.52734 -0.0146,-0.95879 0.19175,-0.95879 0.2063,0 0.29259,-0.43146 0.19176,-0.95879 -0.10079,-0.52733 -0.0607,-0.95879 0.089,-0.95879 0.61044,0 3.27453,-19.31891 2.99468,-21.71609 -0.0832,-0.71217 -0.0184,-1.29484 0.14389,-1.29484 0.16231,0 0.30908,-1.94155 0.32614,-4.31455 0.0566,-7.8704 -0.0556,-24.59947 -0.18324,-27.32548 -0.0692,-1.47654 -0.1353,-3.67696 -0.147,-4.88983 -0.0119,-1.21286 -0.15977,-2.20652 -0.32902,-2.20813 -0.16925,-0.002 -0.32741,-1.16653 -0.35141,-2.58873 -0.0792,-4.68487 -3.25498,-23.12798 -4.03355,-23.42428 -0.18589,-0.0708 -0.24676,-0.27627 -0.13523,-0.45671 0.21692,-0.35096 -1.70722,-8.48922 -2.08314,-8.81079 -0.1233,-0.10547 -0.2606,-0.69517 -0.30513,-1.31046 -0.0445,-0.61528 -0.21711,-1.21932 -0.38351,-1.3423 -0.16641,-0.12298 -0.34072,-0.7397 -0.38739,-1.37047 -0.0466,-0.63077 -0.26344,-1.2064 -0.48177,-1.27918 -0.21834,-0.0728 -0.29673,-0.2945 -0.17423,-0.49272 0.30382,-0.49157 -3.25498,-11.07955 -3.72402,-11.07955 -0.20591,0 -0.26957,-0.16953 -0.14151,-0.37672 0.30201,-0.48873 -3.58131,-10.36172 -4.07559,-10.36172 -0.20675,0 -0.27379,-0.16527 -0.14895,-0.36726 0.12483,-0.202 -1.06257,-3.15378 -2.63871,-6.55952 -13.85852,-29.9461 -35.1136,-56.85774 -61.70166,-78.122224 -16.20806,-12.962791 -35.13749,-23.909445 -54.73116,-31.650334 -7.57701,-2.993458 -19.48811,-6.902045 -20.20043,-6.628706 -0.28018,0.107515 -0.50941,0.04881 -0.50941,-0.130468 0,-0.419106 -3.37436,-1.277068 -3.85483,-0.980124 -0.20011,0.123676 -0.36384,0.02198 -0.36384,-0.226009 0,-0.262064 -0.32122,-0.366883 -0.76703,-0.250298 -0.42187,0.110322 -0.76703,0.02405 -0.76703,-0.191758 0,-0.215788 -0.34517,-0.302079 -0.76703,-0.191757 -0.42187,0.110322 -0.76704,0.02405 -0.76704,-0.191758 0,-0.215789 -0.33688,-0.304243 -0.74864,-0.196567 -0.41175,0.107676 -0.80503,0.02662 -0.87396,-0.180176 -0.0689,-0.206772 -0.85284,-0.404179 -1.74204,-0.43868 -0.8892,-0.03452 -1.61769,-0.167968 -1.61889,-0.296588 -0.003,-0.354913 -8.4342,-1.95958 -9.05135,-1.722756 -0.29629,0.113693 -0.53871,0.01998 -0.53871,-0.208287 0,-0.242969 -0.47695,-0.345007 -1.15054,-0.246144 -0.6328,0.09288 -1.15055,0.04838 -1.15055,-0.09888 0,-0.37835 -7.12635,-1.277905 -7.63471,-0.963725 -0.23051,0.142469 -0.41912,0.09942 -0.41912,-0.09566 0,-0.355074 -8.04199,-1.278844 -10.93019,-1.255534 -0.84373,0.0068 -8.04903,-0.07291 -16.01177,-0.177161 -7.96274,-0.104251 -14.4774,-0.05694 -14.47702,0.105137 3.9e-4,0.162074 -1.03511,0.236207 -2.30109,0.164739 -1.26598,-0.07147 -2.30168,0.01484 -2.30155,0.191758 1.3e-4,0.176935 -0.86278,0.261899 -1.91758,0.188808 -1.0548,-0.07309 -1.91782,0.02171 -1.91782,0.210627 0,0.188935 -0.6032,0.273098 -1.34045,0.187029 -0.73725,-0.08607 -1.6433,-0.02665 -2.01346,0.132048 -0.37015,0.158695 -1.13048,0.252557 -1.68963,0.208583 -0.55915,-0.04397 -1.12022,0.08764 -1.24681,0.292477 -0.1266,0.204831 -0.57259,0.282881 -0.99109,0.173441 -0.41851,-0.109444 -1.06552,-0.06847 -1.43781,0.09104 -0.37228,0.159512 -1.15148,0.25225 -1.73155,0.206082 -0.58006,-0.04617 -1.05612,0.0585 -1.05791,0.232599 -0.002,0.1741 -0.99344,0.35762 -2.20368,0.407823 -1.21024,0.05021 -2.25029,0.240851 -2.31123,0.423654 -0.0609,0.182806 -0.53622,0.251045 -1.0562,0.151646 -0.5351,-0.102292 -0.94541,-1e-4 -0.94541,0.235463 0,0.228901 -0.23908,0.324443 -0.5313,0.212306 -0.29222,-0.112132 -3.26926,0.428514 -6.61564,1.201436 -3.34639,0.772922 -6.47265,1.494238 -6.94725,1.60293 -0.4746,0.108688 -0.86291,0.360263 -0.86291,0.559054 0,0.198795 -0.17267,0.254727 -0.38371,0.124298 -0.48233,-0.298096 -7.67012,1.716489 -7.67012,2.149765 0,0.175524 -0.25887,0.219793 -0.57527,0.09838 -0.3164,-0.121417 -0.57528,-0.03513 -0.57528,0.191757 0,0.226881 -0.23439,0.322568 -0.52086,0.212633 -0.6495,-0.249231 -11.46109,3.624625 -18.96495,6.795247 -6.76546,2.858629 -18.54278,8.792846 -24.61847,12.404461 -10.08588,5.995418 -21.99387,14.399279 -30.07563,21.225373 -3.67861,3.107059 -21.39336,20.44426 -21.144129,20.69349 0.08034,0.0803 -0.5283,0.75533 -1.352533,1.49998 -3.129022,2.82688 -16.259617,19.83899 -15.838459,20.52044 0.104635,0.16931 0.0059,0.30783 -0.219448,0.30783 -0.40174,0 -2.599928,3.27262 -2.704839,4.02692 -0.02934,0.21093 -0.303587,0.52356 -0.609441,0.69472 -0.305853,0.17116 -0.455988,0.47318 -0.333639,0.67115 0.122353,0.19797 0.05954,0.35994 -0.13958,0.35994 -0.448537,0 -1.728643,1.90828 -1.728643,2.57691 0,0.27017 -0.138173,0.49122 -0.30705,0.49122 -0.394438,0 -4.678652,7.26389 -4.678652,7.93266 0,0.27757 -0.140911,0.50468 -0.313137,0.50468 -0.436993,0 -2.263025,3.68793 -1.970748,3.98021 0.131159,0.13115 0.03856,0.23846 -0.205764,0.23846 -0.535522,0 -4.780582,8.33054 -4.48707,8.80546 0.113332,0.18337 0.03287,0.39129 -0.178787,0.46204 -1.016597,0.3398 -7.839887,17.40042 -10.865069,27.16648 -2.230081,7.19928 -4.945291,18.03327 -4.729122,18.86975 0.09278,0.35902 0.0092,0.70593 -0.185702,0.7709 -0.194918,0.065 -0.392321,0.93495 -0.438681,1.93329 -0.04636,0.99835 -0.233844,1.81637 -0.416636,1.81784 -0.182787,0.002 -0.249868,0.43412 -0.149061,0.96146 0.100807,0.52733 0.0645,0.95878 -0.08069,0.95878 -0.362288,0 -1.261743,6.05089 -0.969696,6.52344 0.129118,0.20891 0.0331,0.37984 -0.21335,0.37984 -0.285907,0 -0.391642,0.48368 -0.292108,1.33625 0.0858,0.73494 0.02198,1.38212 -0.141863,1.43819 -0.163826,0.0561 -0.344581,1.3963 -0.401679,2.9783 -0.0571,1.582 -0.2345,2.97361 -0.394227,3.09247 -0.159726,0.11886 -0.373114,2.12649 -0.474194,4.4614 -0.101083,2.3349 -0.280879,4.4983 -0.39955,4.80756 -0.118671,0.30925 -0.116194,6.93072 0.0055,14.71438 0.121697,7.78366 0.206531,15.05859 0.188517,16.16651 -0.01803,1.10793 0.06964,2.18008 0.194792,2.38257 0.125145,0.20249 0.289259,1.71216 0.364696,3.35482 0.186151,4.05348 1.731178,14.46128 2.170433,14.62074 0.194884,0.0708 0.252522,0.29337 0.128091,0.49471 -0.263679,0.42664 0.618495,5.70362 0.954033,5.70684 0.12442,10e-4 0.253531,0.71469 0.286916,1.58556 0.0334,0.87087 0.205971,1.68966 0.383515,1.81953 0.177549,0.12987 0.365794,0.9264 0.41832,1.77007 0.05253,0.84366 0.249933,1.58541 0.43868,1.64833 0.188747,0.0629 0.25508,0.45128 0.147404,0.86304 -0.107675,0.41175 -0.01921,0.74864 0.196567,0.74864 0.215789,0 0.30208,0.34516 0.191758,0.76703 -0.110322,0.42187 -0.02405,0.76703 0.191758,0.76703 0.215789,0 0.30208,0.34516 0.191758,0.76703 -0.116585,0.44582 -0.01177,0.76703 0.250297,0.76703 0.247982,0 0.349686,0.16373 0.22601,0.36384 -0.311231,0.50359 0.570997,3.85483 1.014794,3.85483 0.198342,0 0.256153,0.16903 0.12847,0.37563 -0.302606,0.48963 0.587845,3.45953 1.037252,3.45953 0.189997,0 0.236104,0.17692 0.102464,0.39315 -0.317474,0.51369 3.215103,11.11232 3.70379,11.11232 0.20589,0 0.279939,0.15275 0.164547,0.33946 -0.28751,0.4652 0.535131,2.72866 0.991714,2.72866 0.202749,0 0.277285,0.1478 0.16564,0.32845 -0.279418,0.4521 1.677834,5.42428 2.135219,5.42428 0.202876,0 0.270198,0.15965 0.149602,0.35478 -0.273412,0.44239 0.557137,2.32983 1.025221,2.32983 0.189526,0 0.245254,0.16073 0.123845,0.35718 -0.269029,0.4353 0.950954,3.09446 1.41969,3.09446 0.184314,0 0.233553,0.16434 0.109417,0.36519 -0.124132,0.20085 1.236167,3.2851 3.022893,6.85389 10.337097,20.64717 22.653714,37.97854 38.577224,54.28401 14.34497,14.6891 28.7806,26.02087 46.21362,36.27719 9.63255,5.66706 30.57363,15.4406 31.65352,14.77321 0.20352,-0.12579 0.37003,-0.069 0.37003,0.12625 0,0.43395 6.46933,2.83487 6.90803,2.56373 0.17229,-0.10646 0.37114,-0.039 0.44189,0.14999 0.16653,0.44484 6.41791,2.415 6.83833,2.15517 0.1759,-0.10869 0.37937,-0.0192 0.45215,0.19931 0.0728,0.21834 0.6484,0.43514 1.27918,0.48177 0.63077,0.0467 1.24748,0.22098 1.37046,0.38739 0.12299,0.16641 0.72703,0.33899 1.34231,0.38352 0.61528,0.0445 1.20499,0.18182 1.31046,0.30512 0.32157,0.37592 8.45982,2.30006 8.81079,2.08314 0.18044,-0.11152 0.38595,-0.0322 0.4567,0.17596 0.0707,0.20833 0.81896,0.44833 1.6627,0.53339 0.84373,0.085 1.82782,0.27614 2.18685,0.42467 0.35903,0.14854 0.82171,0.16564 1.02816,0.038 0.20647,-0.1276 0.48889,-0.0484 0.62762,0.17611 0.13873,0.22447 0.53896,0.37335 0.88941,0.33086 0.35045,-0.0425 0.94902,0.0578 1.33015,0.22278 0.38114,0.16507 1.45873,0.32104 2.39464,0.34659 0.93591,0.0257 1.7027,0.19551 1.70399,0.37764 10e-4,0.18213 0.52009,0.25519 1.15289,0.16231 0.6328,-0.0929 1.15054,-0.007 1.15054,0.19018 0,0.19747 0.60132,0.28887 1.33625,0.20304 0.73494,-0.0858 1.38301,-0.0157 1.44015,0.1557 0.0572,0.17143 1.35254,0.35218 2.87866,0.4017 1.52612,0.0495 2.77645,0.23678 2.77852,0.41623 0.002,0.17944 0.78039,0.26447 1.72959,0.18899 0.9492,-0.0755 1.72582,0.009 1.72582,0.18862 0,0.17925 0.94943,0.26681 2.10985,0.19451 1.16043,-0.0722 2.10963,0.0119 2.10934,0.18659 -2.9e-4,0.17488 1.29424,0.26117 2.87674,0.19175 1.58249,-0.0694 2.87685,0.004 2.87636,0.16146 -3.8e-4,0.1582 5.17657,0.28764 11.50458,0.28764 6.328,0 11.50546,-0.13277 11.50546,-0.29508 z"
   id="path866"
   inkscape:connector-curvature="0" /><path
   style="fill:#ffffff;fill-opacity:0.63003666;stroke-width:0.38351554"
   d="m 236.92074,510.92381 c -1.68747,-0.19459 -5.57057,-0.63257 -8.6291,-0.97324 C 180.02852,504.57437 134.17416,485.66245 96.777104,455.70946 88.545411,449.11633 84.33823,445.3542 76.272031,437.37343 55.840789,417.15863 40.209589,395.63079 27.488769,370.18749 13.533721,342.27556 5.5218626,314.67137 1.7757395,281.5954 0.94988443,274.30361 0.60922586,246.94919 1.2274728,237.57033 2.3964368,219.83704 5.957325,200.49979 11.482406,181.88136 21.694368,147.46907 40.698284,113.51361 64.713836,86.769506 70.624171,80.187662 86.275267,64.89715 91.951861,60.159015 104.75873,49.469394 119.88747,39.210499 134.83979,31.076452 160.19599,17.282706 188.7541,7.8101015 218.32023,3.386345 233.58962,1.1017012 234.29349,1.0584466 256.09651,1.0648851 278.12013,1.0713887 281.20016,1.27618 296.4854,3.7503353 353.93342,13.0492 405.19696,40.766249 444.74045,83.90853 c 28.50379,31.09786 48.67521,68.72895 59.07987,110.21725 3.1571,12.58894 5.97203,29.35187 6.73473,40.10545 0.49282,6.94851 0.50145,41.64563 0.0111,44.9892 -0.20698,1.4117 -0.64538,4.724 -0.9742,7.36067 -5.06206,40.59159 -18.71687,77.61529 -40.94834,111.02775 -9.53773,14.33451 -17.44145,23.96646 -30.31426,36.9426 -15.40137,15.52498 -25.55207,23.98801 -41.21339,34.36107 -18.41052,12.19399 -39.23264,22.43816 -59.13897,29.09545 -20.11166,6.72598 -44.16415,11.56268 -62.41634,12.55135 -9.66015,0.52327 -35.17595,0.76396 -38.64001,0.36449 z m 33.74936,-39.11333 c 14.49374,-1.0501 26.5981,-3.0152 40.26914,-6.5376 19.87221,-5.12008 39.11565,-13.20854 56.66905,-23.81926 8.8812,-5.36853 19.20524,-12.67059 26.74558,-18.91676 5.01719,-4.15611 24.41705,-23.65324 28.42889,-28.5714 6.5302,-8.00555 15.5188,-20.73763 18.95284,-26.84609 7.6863,-13.67244 11.90198,-22.26475 15.7119,-32.02355 2.17438,-5.56959 5.14939,-14.18666 5.99136,-17.35408 0.18221,-0.68553 0.49033,-1.80732 0.68469,-2.49285 2.57788,-9.09251 5.33532,-22.42744 6.60214,-31.92767 0.807,-6.05192 0.8707,-7.96456 0.88796,-26.65433 0.0157,-17.04987 -0.0868,-21.01591 -0.6692,-25.8873 -3.5777,-29.92372 -13.91651,-60.47872 -28.87918,-85.34863 C 420.23603,109.14783 389.11558,80.337866 351.9754,62.029608 335.05124,53.686845 323.87974,49.793365 301.35135,44.386164 293.4423,42.487858 276.41202,40.193687 271.91511,40.42077 c -1.5976,0.08067 -2.83632,0.03601 -2.75271,-0.09929 0.31896,-0.516089 -26.06929,-0.30567 -32.43342,0.258628 -35.72554,3.167711 -69.4493,14.807393 -98.77066,34.090478 -14.68773,9.659337 -20.87431,14.732592 -34.13864,27.995114 -15.458824,15.45673 -19.958984,21.06759 -32.467256,40.48059 -1.694383,2.62971 -3.684441,6.1912 -8.893318,15.9159 -3.149653,5.88022 -8.562422,18.86042 -11.674658,27.99663 -3.466536,10.17629 -7.233134,25.99891 -8.674317,36.43882 -0.319936,2.3176 -0.861847,6.19852 -1.204246,8.62426 -0.471628,3.34126 -0.654224,8.308 -0.753228,20.48832 -0.07187,8.84285 -0.02263,16.25275 0.109447,16.46645 0.132075,0.21369 0.19883,1.28013 0.148356,2.36985 -0.219433,4.73707 1.680392,19.2827 3.78004,28.94114 0.642197,2.95413 3.367999,13.90112 3.963058,15.9159 1.821607,6.16766 2.695029,8.898 3.761282,11.75788 2.964806,7.95211 3.020611,8.09337 5.581874,14.12942 7.635737,17.99489 19.028652,36.44538 32.562099,52.73338 5.25452,6.32402 20.748237,21.83531 26.992037,27.0227 16.09208,13.36935 33.18693,23.95553 52.37115,32.43146 10.29161,4.54699 23.98336,9.08866 36.24222,12.02179 11.2929,2.70202 25.15522,4.77738 37.00925,5.54069 4.76398,0.30677 23.14438,0.22117 27.99663,-0.1304 z"
   id="path868"
   inkscape:connector-curvature="0" /><path
   style="fill:#ffffff;fill-opacity:0.63003666;stroke-width:0.38351554"
   d="M 231.74328,510.33423 C 182.01761,504.9603 137.86203,487.42079 99.622172,457.85301 48.209785,418.09997 14.132811,360.54213 3.7840423,295.97723 1.6649145,282.75621 0.90466315,271.50669 0.88119633,253.02349 0.85085952,229.12928 4.2551319,206.52633 11.631193,181.64799 20.763445,150.84629 37.249646,119.99103 58.228108,94.438094 68.59346,81.812521 85.979174,64.73495 98.08811,55.284567 134.21038,27.093048 174.63703,9.837283 220.17685,3.1720392 c 12.90497,-1.8887818 15.40882,-2.0072041 38.79603,-1.8349066 23.14313,0.1704992 24.56837,0.2673775 38.54331,2.6199296 45.42455,7.6467998 86.74846,26.5422668 121.62302,55.6124628 48.93593,40.791235 80.36476,96.916845 89.64503,160.088115 1.85702,12.64075 1.95954,14.58348 1.96314,37.20101 0.004,23.43491 0.0318,23.01969 -2.70597,40.05266 -6.4523,40.14219 -22.75263,78.7616 -47.03454,111.43598 -9.57105,12.87906 -21.73931,26.04005 -36.17855,39.13013 -20.53507,18.61626 -47.4946,35.19518 -75.06127,46.15935 -23.10973,9.19149 -51.73363,15.61906 -75.26179,16.90019 -10.37922,0.56519 -36.81632,0.43985 -42.76198,-0.20273 z m 39.1378,-38.52505 c 28.97705,-2.21024 54.65844,-8.9748 79.17795,-20.85573 18.15771,-8.79835 36.85556,-21.30947 49.50121,-33.12236 6.44943,-6.02468 17.3914,-17.11994 21.48792,-21.78886 7.525,-8.57648 17.84858,-23.57677 24.12861,-35.05911 11.73228,-21.45123 18.51548,-40.03428 23.1686,-63.47182 2.95192,-14.86867 3.17485,-17.37847 3.35557,-37.77628 0.0998,-11.27035 0,-20.26443 -0.25938,-23.58621 -1.6248,-20.73519 -7.61822,-44.44393 -16.57853,-65.58116 C 438.5948,132.19113 409.90918,98.039601 374.41106,74.786022 346.77501,56.682604 315.48807,45.306398 281.79205,41.108931 c -5.42421,-0.675685 -9.1942,-0.837755 -22.43565,-0.964488 -8.81921,-0.08441 -18.05345,0.01975 -20.70984,0.233558 -27.62012,2.223247 -54.7122,9.688902 -78.67391,21.679842 -9.20601,4.60688 -14.68532,7.763474 -22.95771,13.225771 -14.33075,9.462655 -19.75333,13.946109 -33.58293,27.766726 -13.779766,13.77081 -18.531561,19.50699 -27.973085,33.76794 -5.037511,7.60891 -6.30829,9.74015 -11.319507,18.98402 -5.097927,9.40382 -11.240588,24.16719 -14.724922,35.39011 -4.509583,14.5252 -8.163666,33.55679 -9.036666,47.06574 -0.43651,6.75459 -0.185779,34.60369 0.362549,40.26913 1.563113,16.15039 6.447425,37.15551 12.172898,52.34987 9.062837,24.05111 21.03997,44.75643 36.947822,63.87305 5.014432,6.02592 21.393431,22.43091 27.211031,27.25423 23.59274,19.56052 49.9313,33.57475 78.42893,41.73052 13.57993,3.88643 28.00615,6.60145 40.8444,7.68688 2.63667,0.2229 5.39798,0.46217 6.13625,0.53166 3.33296,0.3138 23.75393,0.21002 28.39937,-0.14431 z"
   id="path870"
   inkscape:connector-curvature="0" /><path
   style="fill:#ffffff;fill-opacity:0.63003666;stroke-width:0.38351554"
   d="M 231.93503,510.3546 C 172.24022,503.86325 119.9645,479.67704 78.19112,439.2224 39.613986,401.86311 13.807676,353.21024 4.5508047,300.38766 2.0256598,285.9784 1.3398502,278.26311 1.0082633,260.53442 0.75888118,247.2009 1.1424415,236.82302 2.2355545,227.32795 8.57083,172.29809 31.73031,122.033 69.10171,82.202353 74.973463,75.944204 87.069961,64.423482 92.977328,59.46318 113.05378,42.605367 139.14761,27.291675 164.05278,17.751121 c 19.4435,-7.448322 38.09153,-12.106634 61.73828,-15.4223332 5.09009,-0.7137221 8.1036,-0.827606 25.89502,-0.9785998 21.99444,-0.1866643 28.69861,0.09195 39.50211,1.6416418 37.11229,5.3235185 71.98698,18.2702102 102.97392,38.2274732 53.84834,34.681249 92.79611,88.479717 108.91327,150.441707 6.35466,24.43024 8.21556,42.00956 7.7339,73.05971 -0.23295,15.01854 -0.59729,19.09355 -2.96584,33.17409 -7.0657,42.00345 -23.86149,80.67117 -49.47565,113.90412 -10.14429,13.16164 -26.11499,29.65273 -39.75434,41.0497 -24.6398,20.58888 -56.52799,37.88459 -86.63127,46.98756 -16.69902,5.04967 -33.52821,8.47005 -49.99837,10.1617 -8.50587,0.87369 -43.03188,1.11975 -50.04878,0.35671 z m 38.73507,-38.54343 c 42.96717,-3.10778 81.3033,-17.32773 115.43818,-42.81936 7.10616,-5.30681 10.88237,-8.58503 18.95188,-16.45258 10.73503,-10.46637 17.06069,-17.43466 22.95345,-25.2853 9.72426,-12.95517 15.34794,-22.13202 22.77116,-37.15836 9.37795,-18.98316 16.05626,-40.643 19.46494,-63.13095 0.87561,-5.7765 1.71758,-16.90687 1.47961,-19.55929 -0.13331,-1.48595 -0.16415,-1.39144 -0.22183,0.6799 -0.0368,1.32315 -0.40963,5.72399 -0.82843,9.77965 -2.7556,26.68571 -9.65589,50.50003 -21.52803,74.29738 -6.83578,13.70215 -13.48878,24.33519 -22.5827,36.09242 -56.38615,72.89955 -153.37659,101.83584 -240.84613,71.8544 -17.07261,-5.85187 -36.47465,-15.5529 -50.8166,-25.40833 -36.391638,-25.0074 -63.856954,-59.2723 -79.685462,-99.41317 -8.16266,-20.7004 -12.22603,-38.71119 -14.622554,-64.81413 -0.08715,-0.9492 -0.09312,0.69034 -0.01327,3.64342 0.175539,6.49257 1.543654,16.86623 3.28766,24.92849 7.169294,33.14255 19.454436,60.54591 38.856859,86.67451 4.754638,6.40291 9.211246,11.61297 16.051433,18.76519 15.350814,16.05104 28.830724,26.90338 46.863774,37.72884 6.32546,3.79726 22.67662,11.91579 28.95543,14.37669 20.83498,8.16601 41.42966,13.06476 63.08831,15.0065 6.98306,0.62605 25.6144,0.74698 32.98233,0.21408 z m -10.46967,-89.01763 c 6.80406,-1.45123 12.73239,-6.73209 14.98163,-13.3454 l 0.85726,-2.52053 0.10219,-66.82187 c 0.089,-58.22891 0.0281,-67.18016 -0.47406,-69.60807 -1.78045,-8.6087 -8.36729,-14.84038 -17.01902,-16.10139 -9.87375,-1.43911 -19.54901,5.09227 -22.07892,14.90461 -0.54322,2.10692 -0.60708,9.478 -0.60301,69.60807 0.004,57.06521 0.0876,67.56348 0.55256,69.31055 1.82501,6.85682 7.54568,12.54278 14.50527,14.41726 2.46906,0.66501 6.47255,0.73341 9.1761,0.15677 z M 40.26294,263.47429 c -0.08508,-0.68553 -0.154683,-0.12464 -0.154683,1.24643 0,1.37107 0.06961,1.93196 0.154683,1.24642 0.08507,-0.68553 0.08507,-1.80731 0,-2.49285 z m 0.872498,-27.90075 C 46.80157,178.07647 74.007832,126.64862 118.22268,89.855954 154.5927,59.591232 199.32967,42.456613 247.46741,40.354188 l 7.09504,-0.309877 -8.43734,0.139032 c -22.97896,0.378653 -49.50759,6.14479 -73.25147,15.921594 -6.88681,2.835718 -20.38506,9.619169 -26.92016,13.528534 -9.92298,5.936027 -20.49522,13.361152 -28.30591,19.879881 -5.0479,4.21293 -22.900095,22.010898 -27.431028,27.347698 -9.825416,11.57296 -20.168523,27.29631 -27.799941,42.26081 -13.05161,25.59298 -21.675762,58.60819 -22.221788,85.07003 l -0.158496,7.68106 0.332243,-5.94449 c 0.182734,-3.26947 0.527829,-7.92919 0.766878,-10.35492 z M 471.4497,236.53233 C 469.45047,209.85216 460.22657,178.73267 447.04752,154.2043 419.50485,102.94292 372.36319,64.419447 317.86414,48.637529 c -18.86342,-5.4625 -34.3713,-8.057657 -50.26216,-8.411098 -8.1807,-0.181951 -8.24183,-0.177878 -2.00968,0.133878 38.5375,1.927779 74.37752,13.224705 106.13415,33.453923 14.22582,9.061954 25.48054,18.171894 37.64186,30.468578 7.46916,7.55224 9.30079,9.59443 15.07814,16.81134 22.42903,28.01771 37.06755,59.91413 43.73052,95.28598 1.55883,8.27541 3.14268,21.47448 3.33447,27.78822 l 0.0709,2.33538 0.14919,-2.10934 c 0.0821,-1.16013 -0.0448,-4.69806 -0.28188,-7.86206 z M 261.84925,189.3617 c 1.47653,-0.30809 4.32369,-1.3693 6.32702,-2.35823 3.0169,-1.48928 4.21096,-2.36661 6.95305,-5.10871 2.77703,-2.77702 3.59288,-3.89486 5.06175,-6.93535 5.60401,-11.60007 2.92561,-24.67185 -6.73992,-32.89377 -9.35261,-7.95575 -23.61069,-8.38197 -33.67995,-1.00682 -4.04382,2.96186 -7.3712,7.47559 -9.28307,12.59289 -0.99229,2.65595 -1.18782,3.79004 -1.34086,7.77695 -0.21209,5.52526 0.41301,8.96556 2.36449,13.01315 3.84245,7.96967 10.82639,13.38758 19.43364,15.07597 2.69788,0.52921 7.98207,0.45358 10.90385,-0.15608 z"
   id="path872"
   inkscape:connector-curvature="0" /><path
   style="fill:#ffffff;fill-opacity:0.63003666;stroke-width:0.38351554"
   d="m 250.96213,382.23734 c -6.77779,-1.82278 -12.28082,-7.35037 -14.09627,-14.15918 -0.41585,-1.55964 -0.51214,-13.39578 -0.51585,-63.40884 -0.003,-38.455 0.14802,-64.31652 0.4027,-69.0328 0.38187,-7.07172 0.47661,-7.69176 1.52066,-9.95293 1.25447,-2.71689 4.51141,-6.36096 7.26373,-8.12711 7.35445,-4.71934 17.32428,-3.74512 23.95269,2.34059 3.00427,2.75828 4.4931,5.55704 5.37,10.0947 0.71643,3.70735 0.7503,6.37886 0.87898,69.32337 0.11875,58.08791 0.0668,65.75633 -0.4606,68.03056 -1.68563,7.26827 -7.25146,13.0279 -14.43794,14.94065 -2.60725,0.69394 -7.20024,0.67115 -9.8781,-0.049 z"
   id="path874"
   inkscape:connector-curvature="0" /><path
   style="fill:#ffffff;fill-opacity:0.63003666;stroke-width:0.38351554"
   d="m 249.68095,381.58055 c -5.06383,-1.76457 -8.79013,-5.12505 -11.33458,-10.22182 l -1.42563,-2.85569 -0.28226,-23.03161 c -0.34971,-28.53494 -0.003,-105.58318 0.50571,-112.53567 0.47978,-6.55099 1.21518,-8.26226 5.30581,-12.3465 4.14649,-4.14002 7.85693,-5.71646 13.45476,-5.71646 9.10934,0 16.58996,5.78766 18.69106,14.46101 0.56773,2.34359 0.64236,9.08921 0.76665,69.29616 0.0958,46.407 0.0129,67.28175 -0.27252,68.61254 -1.20464,5.61703 -5.55372,10.99051 -10.99593,13.58595 -2.86718,1.36738 -3.22359,1.44151 -7.42223,1.54381 -3.81228,0.0929 -4.76039,-0.0145 -6.99084,-0.79172 z"
   id="path876"
   inkscape:connector-curvature="0" /><path
   style="fill:#ffffff;fill-opacity:0.63003666;stroke-width:0.38351554"
   d="m 248.93434,381.13967 c -4.57639,-1.9016 -7.94688,-5.06583 -10.51355,-9.87017 l -1.50005,-2.80783 0.008,-66.92346 c 0.009,-71.90182 0.0173,-72.23549 1.92908,-76.18268 1.31539,-2.71578 6.06304,-7.16977 9.21443,-8.64448 3.13911,-1.46897 7.05279,-2.02737 10.48111,-1.49545 4.97222,0.77146 8.12698,2.40186 11.45359,5.91925 2.0616,2.17985 3.01408,3.81817 4.1579,7.15189 0.6988,2.03668 0.72373,4.48705 0.72373,71.14213 v 69.0328 l -1.30692,2.68461 c -1.82601,3.7509 -5.87159,7.76416 -9.65395,9.5768 -2.79415,1.33907 -2.87696,1.35322 -7.82058,1.33718 -4.35588,-0.0142 -5.27558,-0.13216 -7.17299,-0.92059 z"
   id="path878"
   inkscape:connector-curvature="0" /><path
   style="fill:#ffffff;fill-opacity:0.63003666;stroke-width:0.38351554"
   d="m 250.77245,381.64989 c -2.37258,-0.55699 -5.98661,-2.6729 -8.11462,-4.75088 -1.08006,-1.05466 -2.76961,-3.29462 -3.75454,-4.97768 l -1.7908,-3.0601 0.0117,-65.78094 c 0.006,-36.17951 0.16524,-67.89255 0.35284,-70.47341 0.42178,-5.80233 1.2954,-7.96404 4.51201,-11.16462 4.64884,-4.62568 8.16506,-6.19505 13.88023,-6.19505 5.68066,0 9.92304,1.71789 13.65024,5.52745 2.52684,2.58267 4.22481,5.66159 4.80267,8.70866 0.23528,1.2406 0.37479,27.51478 0.37479,70.58411 v 68.60787 l -1.11046,2.19428 c -2.36229,4.66789 -6.59084,8.63806 -11.08837,10.41082 -1.631,0.64289 -2.81026,0.78866 -6.12824,0.75755 -2.25972,-0.0212 -4.7786,-0.19582 -5.5975,-0.38806 z"
   id="path880"
   inkscape:connector-curvature="0" /><path
   style="fill:#ffffff;fill-opacity:0.63003666;stroke-width:0.38351554"
   d="m 251.00806,381.68879 c -4.4193,-0.92256 -9.40492,-5.0039 -12.28401,-10.05596 l -1.64832,-2.89239 0.14932,-68.98043 c 0.15722,-72.62818 0.12253,-71.24344 1.87067,-74.67007 1.25943,-2.46869 5.80006,-6.59899 8.98506,-8.17311 2.46201,-1.21679 3.26372,-1.41523 6.37475,-1.57789 2.04443,-0.1069 4.49187,0.008 5.75207,0.26938 5.41991,1.12535 10.21108,4.9454 12.81806,10.21997 l 1.4796,2.99361 0.1058,69.93668 0.10579,69.93669 -1.3747,2.61606 c -1.82201,3.4673 -5.57402,7.20796 -9.11769,9.09014 -2.69251,1.43008 -2.8646,1.46722 -7.16916,1.54714 -2.42573,0.045 -5.14699,-0.0719 -6.04724,-0.25982 z"
   id="path882"
   inkscape:connector-curvature="0" /><path
   style="fill:#ffffff;fill-opacity:0.63003666;stroke-width:0.38351554"
   d="m 249.38499,188.76726 c -4.96055,-1.27995 -8.19325,-3.16991 -12.08892,-7.06764 -3.55951,-3.56139 -5.21264,-6.11599 -6.76313,-10.45111 -1.11017,-3.10403 -1.41501,-11.13816 -0.5605,-14.77249 1.2668,-5.38785 5.16255,-11.38475 9.55483,-14.70815 4.96815,-3.75914 10.40867,-5.62971 16.37749,-5.63096 4.57662,-9.5e-4 8.07405,0.82037 12.27249,2.88204 6.14232,3.01623 11.87719,9.98231 13.57072,16.4842 0.9853,3.78285 1.1801,9.42756 0.44247,12.82211 -2.71534,12.49598 -13.58708,21.27801 -26.25115,21.20529 -2.32566,-0.0134 -4.73549,-0.29399 -6.5543,-0.76329 z"
   id="path884"
   inkscape:connector-curvature="0" /><path
   style="fill:#ffffff;fill-opacity:0.63003666;stroke-width:0.38351554"
   d="m 250.7273,188.93598 c -2.52627,-0.60862 -6.79486,-2.34266 -8.61892,-3.5013 -2.69989,-1.71496 -7.50143,-6.64511 -9.12315,-9.36752 -2.34099,-3.92986 -2.8923,-6.09319 -3.07595,-12.06993 -0.19263,-6.26906 0.15238,-8.3526 2.02925,-12.25478 7.14977,-14.86498 25.02685,-19.96654 38.61781,-11.02032 4.74248,3.12173 9.0508,8.72655 10.70743,13.92963 0.99814,3.13491 1.39661,10.13963 0.76068,13.372 -1.78329,9.06429 -8.51711,16.77709 -17.36215,19.88629 -2.39081,0.84042 -3.5902,1.0055 -7.99051,1.09978 -2.84761,0.061 -5.52263,0.0278 -5.94449,-0.0738 z"
   id="path886"
   inkscape:connector-curvature="0" /><path
   style="fill:#ffffff;fill-opacity:0.63003666;stroke-width:0.38351554"
   d="m 247.75073,187.8331 c -4.41261,-1.57045 -6.46056,-2.91041 -10.25798,-6.71175 -4.06015,-4.06434 -6.11122,-7.41767 -6.89954,-11.28023 -0.25375,-1.24333 -0.4664,-4.69497 -0.47254,-7.67031 -0.01,-4.84377 0.0893,-5.6802 0.9487,-7.99521 3.19332,-8.60149 10.35758,-15.00768 19.03601,-17.02177 3.21644,-0.74647 9.13842,-0.72678 12.12738,0.0403 1.2656,0.32481 3.76804,1.3051 5.56098,2.17844 2.64138,1.28661 3.87838,2.21364 6.51976,4.88601 5.18674,5.24759 7.07381,9.16231 7.66543,15.90186 0.74716,8.51145 -1.3448,14.80538 -6.88821,20.72403 -2.85465,3.04788 -7.08109,5.75986 -10.81424,6.93916 -2.6655,0.84203 -3.71621,0.95922 -8.4874,0.94666 -4.75521,-0.0125 -5.77392,-0.1313 -8.03835,-0.9372 z"
   id="path888"
   inkscape:connector-curvature="0" /><path
   style="fill:#ffffff;fill-opacity:0.63003666;stroke-width:0.38351554"
   d="m 249.92488,188.38943 c -2.1281,-0.42193 -6.12573,-2.13772 -8.02459,-3.44418 -0.85668,-0.58941 -3.10509,-2.69036 -4.99647,-4.66877 -5.68719,-5.9489 -6.87163,-9.37337 -6.63506,-19.18339 l 0.13221,-5.48254 1.57514,-3.25989 c 3.04393,-6.29966 6.75418,-10.1408 12.61494,-13.05995 9.11379,-4.53943 20.66452,-3.13886 27.96288,3.39062 6.71526,6.00781 9.42988,11.92779 9.42988,20.56448 0,4.69439 -0.49532,6.99869 -2.31582,10.77348 -2.77707,5.75825 -6.69128,9.67246 -12.44953,12.44953 -1.68746,0.81383 -3.98267,1.66782 -5.10045,1.89775 -2.31167,0.47553 -9.83882,0.48964 -12.19313,0.0229 z"
   id="path890"
   inkscape:connector-curvature="0" /></svg>